<svg width="19" height="19" viewBox="0 0 19 19" fill="none" xmlns="http://www.w3.org/2000/svg">
<path d="M17.9036 0.399963H12.0536C11.977 0.399963 11.9143 0.462642 11.9143 0.539249V1.83925C11.9143 1.91586 11.977 1.97853 12.0536 1.97853H15.7772L11.1506 6.60514C9.98984 5.71139 8.57377 5.22853 7.08574 5.22853C5.30056 5.22853 3.61985 5.92496 2.35931 7.18782C1.09877 8.45068 0.400024 10.1291 0.400024 11.9142C0.400024 13.6994 1.09645 15.3801 2.35931 16.6407C3.61985 17.9035 5.30056 18.6 7.08574 18.6C8.87092 18.6 10.5516 17.9035 11.8122 16.6407C13.075 15.3801 13.7715 13.6994 13.7715 11.9142C13.7715 10.4262 13.2886 9.01478 12.3972 7.85407L17.0215 3.22978V6.94639C17.0215 7.023 17.0841 7.08568 17.1607 7.08568H18.4607C18.5373 7.08568 18.6 7.023 18.6 6.94639V1.09639C18.6 0.713356 18.2866 0.399963 17.9036 0.399963ZM7.08574 16.8357C4.37199 16.8357 2.16431 14.628 2.16431 11.9142C2.16431 9.2005 4.37199 6.99282 7.08574 6.99282C9.79949 6.99282 12.0072 9.2005 12.0072 11.9142C12.0072 14.628 9.79949 16.8357 7.08574 16.8357Z" fill="url(#paint0_linear_556_9781)"/>
<defs>
<linearGradient id="paint0_linear_556_9781" x1="0.400024" y1="9.49996" x2="18.6" y2="9.49996" gradientUnits="userSpaceOnUse">
<stop stop-color="#2C5FC0"/>
<stop offset="1" stop-color="#131896"/>
</linearGradient>
</defs>
</svg>
