<svg width="14" height="14" viewBox="0 0 14 14" fill="none" xmlns="http://www.w3.org/2000/svg">
<path d="M7 0C3.1402 0 0 3.1402 0 7C0 10.8598 3.1402 14 7 14C8.0262 14 9.0727 13.7403 10.1094 13.2272L9.4899 11.9721C8.6471 12.3886 7.8092 12.6 7 12.6C3.9123 12.6 1.4 10.0877 1.4 7C1.4 3.9123 3.9123 1.4 7 1.4C10.0877 1.4 12.6 3.9123 12.6 7V7.7C12.6 8.1844 12.3809 9.1 11.55 9.1C10.5728 9.1 10.5042 7.8267 10.5 7.7V4.2H9.1V4.2175C8.49749 3.75476 7.7597 3.50268 7 3.5C5.0701 3.5 3.5 5.0701 3.5 7C3.5 8.9299 5.0701 10.5 7 10.5C8.015 10.5 8.9236 10.0583 9.5634 9.3653C9.9302 9.9883 10.549 10.5 11.55 10.5C13.1411 10.5 14 9.0573 14 7.7V7C14 3.1402 10.8598 0 7 0ZM7 9.1C5.8422 9.1 4.9 8.1578 4.9 7C4.9 5.8422 5.8422 4.9 7 4.9C8.1578 4.9 9.1 5.8422 9.1 7C9.1 8.1578 8.1578 9.1 7 9.1Z" fill="url(#paint0_linear_560_10269)"/>
<defs>
<linearGradient id="paint0_linear_560_10269" x1="1.95578e-08" y1="7" x2="14" y2="7" gradientUnits="userSpaceOnUse">
<stop stop-color="#2C5FC0"/>
<stop offset="1" stop-color="#131896"/>
</linearGradient>
</defs>
</svg>
