<svg width="84" height="16" viewBox="0 0 84 16" fill="none" xmlns="http://www.w3.org/2000/svg">
<path d="M2.14799 15.1881C1.53483 15.1881 1.06102 15.0209 0.726569 14.6865C0.392117 14.352 0.224891 13.8643 0.224891 13.2232V2.04C0.224891 1.39897 0.392117 0.911226 0.726569 0.576774C1.06102 0.242322 1.53483 0.0750964 2.14799 0.0750964C2.76115 0.0750964 3.23496 0.242322 3.56941 0.576774C3.90386 0.911226 4.07108 1.39897 4.07108 2.04V13.2232C4.07108 13.8643 3.90386 14.352 3.56941 14.6865C3.24889 15.0209 2.77508 15.1881 2.14799 15.1881ZM8.53441 15.1881C7.33596 15.1881 6.73674 14.5819 6.73674 13.3695V1.97729C6.73674 1.36413 6.89003 0.89729 7.19661 0.576774C7.50319 0.242322 7.90732 0.0750964 8.40899 0.0750964C8.85493 0.0750964 9.19635 0.158709 9.43325 0.325936C9.68409 0.493161 9.96977 0.77187 10.2903 1.16206L16.3313 8.70813V1.87277C16.3313 0.674322 16.9236 0.0750964 18.1081 0.0750964C18.6934 0.0750964 19.1323 0.235354 19.425 0.555871C19.7316 0.862451 19.8849 1.30142 19.8849 1.87277V13.4532C19.8849 13.9827 19.7455 14.4077 19.4668 14.7283C19.1881 15.0348 18.8118 15.1881 18.338 15.1881C17.8642 15.1881 17.488 15.1045 17.2093 14.9373C16.9445 14.7701 16.6588 14.4914 16.3522 14.1012L10.3112 6.5551V13.3695C10.3112 14.5819 9.71893 15.1881 8.53441 15.1881ZM29.0157 15.1881C28.4861 15.1881 28.0541 15.0766 27.7197 14.8537C27.3991 14.6307 27.1274 14.2754 26.9044 13.7876L21.8458 2.62529C21.6229 2.13755 21.5532 1.69858 21.6368 1.30839C21.7204 0.918194 21.9155 0.618581 22.2221 0.409549C22.5287 0.186581 22.9119 0.0750964 23.3718 0.0750964C23.9292 0.0750964 24.3542 0.200516 24.6469 0.451355C24.9395 0.702193 25.1904 1.07148 25.3994 1.55923L29.0784 10.0877L32.7573 1.53832C32.9664 1.05058 33.2172 0.688258 33.5098 0.451355C33.8025 0.200516 34.2136 0.0750964 34.7431 0.0750964C35.1751 0.0750964 35.5375 0.186581 35.8301 0.409549C36.1228 0.632516 36.3039 0.939096 36.3736 1.32929C36.4572 1.70555 36.3875 2.13755 36.1646 2.62529L31.0851 13.7876C30.876 14.2754 30.6043 14.6307 30.2698 14.8537C29.9493 15.0766 29.5313 15.1881 29.0157 15.1881ZM40.0147 15.1881C39.4015 15.1881 38.9277 15.0209 38.5933 14.6865C38.2588 14.352 38.0916 13.8643 38.0916 13.2232V2.04C38.0916 1.39897 38.2588 0.911226 38.5933 0.576774C38.9277 0.242322 39.4015 0.0750964 40.0147 0.0750964C40.6278 0.0750964 41.1016 0.242322 41.4361 0.576774C41.7705 0.911226 41.9378 1.39897 41.9378 2.04V13.2232C41.9378 13.8643 41.7705 14.352 41.4361 14.6865C41.1156 15.0209 40.6418 15.1881 40.0147 15.1881ZM49.9964 15.1881C49.3833 15.1881 48.9095 15.0209 48.575 14.6865C48.2406 14.352 48.0734 13.8712 48.0734 13.2441V3.39871H44.7915C43.7324 3.39871 43.2029 2.87613 43.2029 1.83097C43.2029 0.785806 43.7324 0.263226 44.7915 0.263226H55.2014C56.2604 0.263226 56.79 0.785806 56.79 1.83097C56.79 2.87613 56.2604 3.39871 55.2014 3.39871H51.9195V13.2441C51.9195 13.8712 51.7523 14.352 51.4179 14.6865C51.0974 15.0209 50.6235 15.1881 49.9964 15.1881ZM60.0625 15C58.7247 15 58.0558 14.3381 58.0558 13.0142V2.24903C58.0558 0.925161 58.7247 0.263226 60.0625 0.263226H67.1487C68.152 0.263226 68.6537 0.750967 68.6537 1.72645C68.6537 2.72981 68.152 3.23148 67.1487 3.23148H61.7348V6.03252H66.6888C67.6922 6.03252 68.1939 6.52723 68.1939 7.51665C68.1939 8.50606 67.6922 9.00077 66.6888 9.00077H61.7348V12.0317H67.1487C68.152 12.0317 68.6537 12.5265 68.6537 13.5159C68.6537 14.5053 68.152 15 67.1487 15H60.0625ZM72.8189 15.1881C72.2057 15.1881 71.7319 15.0209 71.3974 14.6865C71.063 14.352 70.8958 13.8712 70.8958 13.2441V2.20723C70.8958 1.58013 71.063 1.09935 71.3974 0.764903C71.7319 0.430451 72.2127 0.263226 72.8398 0.263226H77.982C79.6542 0.263226 80.9432 0.674322 81.849 1.49652C82.7688 2.30477 83.2287 3.43355 83.2287 4.88284C83.2287 5.98374 82.95 6.91045 82.3925 7.66297C81.849 8.40155 81.0547 8.91716 80.0096 9.20981C80.79 9.41884 81.4171 9.95535 81.8909 10.8194L82.936 12.7006C83.159 13.1187 83.2565 13.5159 83.2287 13.8921C83.2147 14.2684 83.0684 14.5819 82.7897 14.8328C82.511 15.0697 82.0999 15.1881 81.5564 15.1881C81.0129 15.1881 80.567 15.0836 80.2186 14.8746C79.8841 14.6516 79.5845 14.2963 79.3198 13.8085L77.4176 10.3177C77.2503 10.0111 77.0343 9.80206 76.7696 9.69058C76.5187 9.56516 76.2261 9.50245 75.8916 9.50245H74.742V13.2441C74.742 13.8712 74.5747 14.352 74.2403 14.6865C73.9198 15.0209 73.446 15.1881 72.8189 15.1881ZM74.742 6.78503H77.2921C78.8111 6.78503 79.5706 6.18581 79.5706 4.98735C79.5706 3.80284 78.8111 3.21058 77.2921 3.21058H74.742V6.78503Z" fill="url(#paint0_linear_556_9979)"/>
<defs>
<linearGradient id="paint0_linear_556_9979" x1="-1.11291" y1="7.06451" x2="85.1129" y2="7.06451" gradientUnits="userSpaceOnUse">
<stop stop-color="#2C5FC0"/>
<stop offset="1" stop-color="#131896"/>
</linearGradient>
</defs>
</svg>
