<svg width="14" height="14" viewBox="0 0 14 14" fill="none" xmlns="http://www.w3.org/2000/svg">
<path d="M1.81261 13.2534C1.41539 13.2534 1.07522 13.1119 0.79211 12.8288C0.508999 12.5456 0.367684 12.2057 0.368165 11.809V1.69786C0.368165 1.30064 0.509721 0.960474 0.792832 0.677363C1.07594 0.394252 1.41587 0.252938 1.81261 0.253419H6.86817V1.69786H1.81261V11.809H11.9237V6.75342H13.3682V11.809C13.3682 12.2062 13.2266 12.5464 12.9435 12.8295C12.6604 13.1126 12.3205 13.2539 11.9237 13.2534H1.81261ZM5.20705 9.42564L4.19594 8.41453L10.9126 1.69786H8.31261V0.253419H13.3682V5.30897H11.9237V2.70897L5.20705 9.42564Z" fill="url(#paint0_linear_1253_1539)"/>
<defs>
<linearGradient id="paint0_linear_1253_1539" x1="0.368164" y1="6.75342" x2="13.3682" y2="6.75342" gradientUnits="userSpaceOnUse">
<stop stop-color="#2C5FC0"/>
<stop offset="1" stop-color="#131896"/>
</linearGradient>
</defs>
</svg>
