<svg width="18" height="18" viewBox="0 0 18 18" fill="none" xmlns="http://www.w3.org/2000/svg">
<g clip-path="url(#clip0_1369_921)">
<path d="M14 14.5L17 17.5" stroke="white" stroke-width="1.33333" stroke-miterlimit="10" stroke-linecap="round"/>
<path d="M8.5 1.5C7.01664 1.5 5.56659 1.93987 4.33323 2.76398C3.09986 3.58809 2.13856 4.75943 1.57091 6.12987C1.00325 7.50032 0.854725 9.00832 1.14411 10.4632C1.4335 11.918 2.14781 13.2544 3.1967 14.3033C4.2456 15.3522 5.58197 16.0665 7.03683 16.3559C8.49168 16.6453 9.99968 16.4967 11.3701 15.9291C12.7406 15.3614 13.9119 14.4001 14.736 13.1668C15.5601 11.9334 16 10.4834 16 9C15.9999 7.01091 15.2097 5.10333 13.8032 3.69684C12.3967 2.29034 10.4891 1.50013 8.5 1.5Z" stroke="white" stroke-width="1.33333" stroke-miterlimit="10"/>
</g>
<defs>
<clipPath id="clip0_1369_921">
<rect width="18" height="18" fill="white"/>
</clipPath>
</defs>
</svg>
