<svg width="19" height="19" viewBox="0 0 19 19" fill="none" xmlns="http://www.w3.org/2000/svg">
<path d="M9.49996 1C7.81883 1 6.17545 1.49851 4.77764 2.4325C3.37983 3.36649 2.29037 4.694 1.64702 6.24716C1.00368 7.80033 0.835355 9.50938 1.16333 11.1582C1.4913 12.807 2.30084 14.3216 3.48958 15.5103C4.67832 16.6991 6.19287 17.5086 7.8417 17.8366C9.49053 18.1646 11.1996 17.9962 12.7527 17.3529C14.3059 16.7095 15.6334 15.6201 16.5674 14.2223C17.5014 12.8245 17.9999 11.1811 17.9999 9.49995C17.9973 7.24643 17.1009 5.08595 15.5074 3.49247C13.914 1.89898 11.7535 1.00261 9.49996 1ZM9.49996 16.6922C8.07746 16.6922 6.68691 16.2704 5.50414 15.4801C4.32138 14.6898 3.39953 13.5665 2.85516 12.2523C2.3108 10.9381 2.16836 9.49198 2.44588 8.09681C2.7234 6.70165 3.40839 5.4201 4.41425 4.41425C5.42011 3.40839 6.70165 2.72339 8.09681 2.44588C9.49198 2.16836 10.9381 2.31079 12.2523 2.85516C13.5665 3.39952 14.6898 4.32138 15.4801 5.50414C16.2704 6.6869 16.6922 8.07746 16.6922 9.49995C16.6901 11.4068 15.9316 13.2349 14.5833 14.5833C13.2349 15.9316 11.4068 16.6901 9.49996 16.6922ZM13.641 9.49995C13.641 9.67336 13.5721 9.83965 13.4494 9.96227C13.3268 10.0849 13.1605 10.1538 12.9871 10.1538H9.49996C9.32652 10.1538 9.16018 10.085 9.03753 9.96233C8.91487 9.83971 8.84594 9.67339 8.84589 9.49995V5.14106C8.84486 5.05454 8.86101 4.96868 8.89341 4.88845C8.92581 4.80822 8.9738 4.73522 9.03462 4.67368C9.09544 4.61213 9.16786 4.56327 9.2477 4.52992C9.32754 4.49658 9.4132 4.4794 9.49973 4.4794C9.58625 4.4794 9.67191 4.49658 9.75175 4.52992C9.83159 4.56327 9.90402 4.61213 9.96483 4.67368C10.0256 4.73522 10.0736 4.80822 10.106 4.88845C10.1384 4.96868 10.1546 5.05454 10.1536 5.14106V8.84588H12.9873C13.1607 8.84593 13.327 8.91484 13.4496 9.03746C13.5722 9.16007 13.641 9.32655 13.641 9.49995Z" fill="url(#paint0_linear_2171_2468)"/>
<defs>
<linearGradient id="paint0_linear_2171_2468" x1="1" y1="10" x2="18" y2="10" gradientUnits="userSpaceOnUse">
<stop stop-color="#2C5FC0"/>
<stop offset="1" stop-color="#131896"/>
</linearGradient>
</defs>
</svg>
