<svg width="13" height="20" viewBox="0 0 13 20" fill="none" xmlns="http://www.w3.org/2000/svg">
<path d="M11.0958 10.8214C12.3225 9.625 13 8.03125 13 6.33929C13 4.64509 12.3248 3.05357 11.0958 1.85714C9.86901 0.660714 8.23486 0 6.5 0C4.76514 0 3.13099 0.658482 1.90423 1.85714C0.677465 3.0558 0 4.64509 0 6.33929C0 7.76339 0.478345 9.11607 1.35951 10.221C1.52658 10.4308 1.70739 10.6295 1.90194 10.8214C2.09648 11.0112 2.30246 11.1875 2.51532 11.3504C3.42165 12.0379 4.49049 12.4754 5.63028 12.6228V15H3.02113C2.92042 15 2.83803 15.0804 2.83803 15.1786V16.5179C2.83803 16.6161 2.92042 16.6964 3.02113 16.6964H5.63028V19.8214C5.63028 19.9196 5.71268 20 5.81338 20H7.18662C7.28732 20 7.36972 19.9196 7.36972 19.8214V16.6964H9.97887C10.0796 16.6964 10.162 16.6161 10.162 16.5179V15.1786C10.162 15.0804 10.0796 15 9.97887 15H7.36972V12.6228C8.77729 12.4397 10.075 11.817 11.0958 10.8214ZM6.5 10.9821C5.22746 10.9821 4.03503 10.5 3.13327 9.62277C2.2338 8.74554 1.73944 7.58036 1.73944 6.33929C1.73944 5.09821 2.2338 3.93527 3.13327 3.0558C4.03275 2.17634 5.22746 1.69643 6.5 1.69643C7.77254 1.69643 8.96496 2.17857 9.86672 3.0558C10.7662 3.93304 11.2606 5.09821 11.2606 6.33929C11.2606 7.58036 10.7662 8.7433 9.86672 9.62277C8.96496 10.5 7.77254 10.9821 6.5 10.9821Z" fill="url(#paint0_linear_556_9784)"/>
<defs>
<linearGradient id="paint0_linear_556_9784" x1="1.81608e-08" y1="10" x2="13" y2="10" gradientUnits="userSpaceOnUse">
<stop stop-color="#2C5FC0"/>
<stop offset="1" stop-color="#131896"/>
</linearGradient>
</defs>
</svg>
