<svg width="12" height="12" viewBox="0 0 12 12" fill="none" xmlns="http://www.w3.org/2000/svg">
<path fill-rule="evenodd" clip-rule="evenodd" d="M0 6C0 4.4087 0.632141 2.88258 1.75736 1.75736C2.88258 0.632141 4.4087 0 6 0C7.5913 0 9.11742 0.632141 10.2426 1.75736C11.3679 2.88258 12 4.4087 12 6C12 7.5913 11.3679 9.11742 10.2426 10.2426C9.11742 11.3679 7.5913 12 6 12C4.4087 12 2.88258 11.3679 1.75736 10.2426C0.632141 9.11742 0 7.5913 0 6ZM6.68571 3.25714C6.68571 3.43901 6.61347 3.61342 6.48487 3.74202C6.35628 3.87061 6.18186 3.94286 6 3.94286C5.81814 3.94286 5.64372 3.87061 5.51513 3.74202C5.38653 3.61342 5.31429 3.43901 5.31429 3.25714C5.31429 3.07528 5.38653 2.90087 5.51513 2.77227C5.64372 2.64367 5.81814 2.57143 6 2.57143C6.18186 2.57143 6.35628 2.64367 6.48487 2.77227C6.61347 2.90087 6.68571 3.07528 6.68571 3.25714ZM6 5.14286C6.1364 5.14286 6.26721 5.19704 6.36365 5.29349C6.4601 5.38994 6.51429 5.52075 6.51429 5.65714V9.08571C6.51429 9.22211 6.4601 9.35292 6.36365 9.44937C6.26721 9.54582 6.1364 9.6 6 9.6C5.8636 9.6 5.73279 9.54582 5.63635 9.44937C5.5399 9.35292 5.48571 9.22211 5.48571 9.08571V5.65714C5.48571 5.52075 5.5399 5.38994 5.63635 5.29349C5.73279 5.19704 5.8636 5.14286 6 5.14286Z" fill="url(#paint0_linear_588_1695)"/>
<defs>
<linearGradient id="paint0_linear_588_1695" x1="1.67638e-08" y1="6" x2="12" y2="6" gradientUnits="userSpaceOnUse">
<stop stop-color="#2C5FC0"/>
<stop offset="1" stop-color="#131896"/>
</linearGradient>
</defs>
</svg>
