<svg width="19" height="18" viewBox="0 0 19 18" fill="none" xmlns="http://www.w3.org/2000/svg">
<path d="M4.25394 4.36364C4.25394 3.56799 4.58261 2.80492 5.16764 2.24232C5.75267 1.67971 6.54614 1.36364 7.37349 1.36364C8.20085 1.36364 8.99432 1.67971 9.57935 2.24232C10.1644 2.80492 10.493 3.56799 10.493 4.36364C10.493 5.15929 10.1644 5.92235 9.57935 6.48496C8.99432 7.04757 8.20085 7.36364 7.37349 7.36364C6.54614 7.36364 5.75267 7.04757 5.16764 6.48496C4.58261 5.92235 4.25394 5.15929 4.25394 4.36364ZM7.37349 0C6.17007 0 5.01593 0.459739 4.16497 1.27808C3.31402 2.09642 2.83596 3.20633 2.83596 4.36364C2.83596 5.52094 3.31402 6.63085 4.16497 7.44919C5.01593 8.26753 6.17007 8.72727 7.37349 8.72727C8.57692 8.72727 9.73106 8.26753 10.582 7.44919C11.433 6.63085 11.911 5.52094 11.911 4.36364C11.911 3.20633 11.433 2.09642 10.582 1.27808C9.73106 0.459739 8.57692 0 7.37349 0ZM2.12697 10.3636C1.56286 10.3636 1.02186 10.5791 0.622975 10.9627C0.224091 11.3463 0 11.8666 0 12.4091V13.1198L0.00226874 13.1727C0.00453751 13.2164 0.00907505 13.2742 0.0170157 13.3462C0.0334643 13.4891 0.0646598 13.6855 0.125917 13.9189C0.288467 14.5338 0.577785 15.111 0.976704 15.6164C1.97326 16.8796 3.87165 18 7.37349 18C10.8759 18 12.7743 16.8796 13.7697 15.6164C14.1689 15.1109 14.4584 14.5335 14.6211 13.9184C14.6823 13.6855 14.7135 13.4891 14.73 13.3456C14.7386 13.2706 14.7442 13.1953 14.747 13.1198V12.4091C14.747 12.1405 14.692 11.8745 14.5851 11.6263C14.4782 11.3782 14.3215 11.1527 14.124 10.9627C13.9265 10.7728 13.692 10.6221 13.434 10.5193C13.1759 10.4165 12.8993 10.3636 12.62 10.3636H2.12697ZM1.41855 13.104L1.41798 13.0865V12.4091C1.41798 12.0327 1.73561 11.7273 2.12697 11.7273H12.62C13.0114 11.7273 13.329 12.0327 13.329 12.4091V13.0865L13.3284 13.104C13.3156 13.266 13.2883 13.4265 13.2468 13.584C13.1307 14.0219 12.9243 14.433 12.6399 14.7927C11.9694 15.6436 10.5356 16.6364 7.37349 16.6364C4.2114 16.6364 2.77754 15.6436 2.10712 14.7927C1.82276 14.4331 1.61638 14.0223 1.50022 13.5845C1.45872 13.4269 1.4314 13.2661 1.41855 13.104Z" fill="url(#paint0_linear_556_10013)"/>
<path d="M13 6.51123L14.6667 8.51123L18 5.51123" stroke="url(#paint1_linear_556_10013)" stroke-width="1.2" stroke-linecap="round" stroke-linejoin="round"/>
<defs>
<linearGradient id="paint0_linear_556_10013" x1="2.06013e-08" y1="9" x2="14.747" y2="9" gradientUnits="userSpaceOnUse">
<stop stop-color="#2C5FC0"/>
<stop offset="1" stop-color="#131896"/>
</linearGradient>
<linearGradient id="paint1_linear_556_10013" x1="13" y1="7.01123" x2="18" y2="7.01123" gradientUnits="userSpaceOnUse">
<stop stop-color="#2C5FC0"/>
<stop offset="1" stop-color="#131896"/>
</linearGradient>
</defs>
</svg>
