<svg width="18" height="19" viewBox="0 0 18 19" fill="none" xmlns="http://www.w3.org/2000/svg">
<path d="M3.25301 5.95455C3.25301 5.34611 3.50435 4.76259 3.95172 4.33236C4.3991 3.90213 5.00587 3.66043 5.63855 3.66043C6.27124 3.66043 6.87801 3.90213 7.32539 4.33236C7.77276 4.76259 8.0241 5.34611 8.0241 5.95455C8.0241 6.56298 7.77276 7.1465 7.32539 7.57673C6.87801 8.00696 6.27124 8.24866 5.63855 8.24866C5.00587 8.24866 4.3991 8.00696 3.95172 7.57673C3.50435 7.1465 3.25301 6.56298 3.25301 5.95455ZM5.63855 2.61765C4.71829 2.61765 3.83571 2.96921 3.18498 3.595C2.53425 4.22079 2.16867 5.06955 2.16867 5.95455C2.16867 6.83955 2.53425 7.6883 3.18498 8.31409C3.83571 8.93988 4.71829 9.29145 5.63855 9.29145C6.55882 9.29145 7.4414 8.93988 8.09213 8.31409C8.74286 7.6883 9.10843 6.83955 9.10843 5.95455C9.10843 5.06955 8.74286 4.22079 8.09213 3.595C7.4414 2.96921 6.55882 2.61765 5.63855 2.61765ZM11.9277 6.78877C11.9277 6.40158 12.0877 6.03025 12.3723 5.75647C12.657 5.48269 13.0432 5.32888 13.4458 5.32888C13.8484 5.32888 14.2345 5.48269 14.5192 5.75647C14.8039 6.03025 14.9639 6.40158 14.9639 6.78877C14.9639 7.17596 14.8039 7.54729 14.5192 7.82107C14.2345 8.09486 13.8484 8.24866 13.4458 8.24866C13.0432 8.24866 12.657 8.09486 12.3723 7.82107C12.0877 7.54729 11.9277 7.17596 11.9277 6.78877ZM13.4458 4.2861C12.7556 4.2861 12.0936 4.54977 11.6056 5.01911C11.1176 5.48846 10.8434 6.12502 10.8434 6.78877C10.8434 7.45252 11.1176 8.08909 11.6056 8.55843C12.0936 9.02777 12.7556 9.29145 13.4458 9.29145C14.136 9.29145 14.7979 9.02777 15.286 8.55843C15.774 8.08909 16.0482 7.45252 16.0482 6.78877C16.0482 6.12502 15.774 5.48846 15.286 5.01911C14.7979 4.54977 14.136 4.2861 13.4458 4.2861ZM13.4458 15.5481C12.502 15.5481 11.7447 15.4013 11.14 15.1636L11.2207 15.0634C11.435 14.7919 11.5994 14.5199 11.7252 14.2622C12.1676 14.4102 12.7297 14.5053 13.4453 14.5053C15.3 14.5053 16.1228 13.8659 16.5088 13.3245C16.7287 13.0134 16.8664 12.6555 16.91 12.2817C16.9125 12.2573 16.9142 12.2328 16.9152 12.2083V12.107C16.9152 11.8191 16.6723 11.5856 16.3731 11.5856H12.0852C11.9961 11.2001 11.8091 10.8418 11.5408 10.5428H16.3735C16.8049 10.5428 17.2186 10.7076 17.5236 11.0009C17.8286 11.2943 18 11.6921 18 12.107V12.2308L17.9987 12.2667C17.997 12.2959 17.9944 12.3351 17.99 12.3831C17.9285 12.9319 17.7273 13.4577 17.404 13.9139C16.786 14.7794 15.6036 15.5481 13.4458 15.5481ZM1.62651 10.5428C1.19513 10.5428 0.781422 10.7076 0.476393 11.0009C0.171364 11.2943 0 11.6921 0 12.107V12.6505L0.00173492 12.6909C0.00346986 12.7243 0.00693975 12.7685 0.013012 12.8236C0.0255903 12.9328 0.0494457 13.083 0.0962891 13.2615C0.220593 13.7317 0.441835 14.1731 0.746892 14.5596C1.50896 15.5256 2.96068 16.3824 5.63855 16.3824C8.31687 16.3824 9.76858 15.5256 10.5298 14.5596C10.835 14.173 11.0564 13.7315 11.1808 13.2611C11.2277 13.083 11.2515 12.9328 11.2641 12.8231C11.2707 12.7657 11.275 12.7081 11.2771 12.6505V12.107C11.2771 11.9015 11.235 11.6981 11.1533 11.5084C11.0716 11.3186 10.9518 11.1462 10.8007 11.0009C10.6497 10.8557 10.4704 10.7405 10.273 10.6618C10.0757 10.5832 9.8642 10.5428 9.6506 10.5428H1.62651ZM1.08477 12.6384L1.08434 12.625V12.107C1.08434 11.8191 1.32723 11.5856 1.62651 11.5856H9.6506C9.94988 11.5856 10.1928 11.8191 10.1928 12.107V12.625L10.1923 12.6384C10.1825 12.7622 10.1616 12.885 10.1299 13.0054C10.0411 13.3403 9.88328 13.6546 9.66578 13.9297C9.15311 14.5804 8.05663 15.3396 5.63855 15.3396C3.22048 15.3396 2.124 14.5804 1.61133 13.9297C1.39387 13.6547 1.23605 13.3406 1.14723 13.0058C1.11549 12.8853 1.0946 12.7623 1.08477 12.6384Z" fill="url(#paint0_linear_694_1193)"/>
<defs>
<linearGradient id="paint0_linear_694_1193" x1="2.51457e-08" y1="9.5" x2="18" y2="9.5" gradientUnits="userSpaceOnUse">
<stop stop-color="#2C5FC0"/>
<stop offset="1" stop-color="#131896"/>
</linearGradient>
</defs>
</svg>
