<svg width="18" height="19" viewBox="0 0 18 19" fill="none" xmlns="http://www.w3.org/2000/svg">
<g clip-path="url(#clip0_556_9995)">
<path d="M14 15L17 18" stroke="url(#paint0_linear_556_9995)" stroke-width="1.33333" stroke-miterlimit="10" stroke-linecap="round"/>
<path d="M8.5 2C7.01664 2 5.56659 2.43987 4.33323 3.26398C3.09986 4.08809 2.13856 5.25943 1.57091 6.62987C1.00325 8.00032 0.854725 9.50832 1.14411 10.9632C1.4335 12.418 2.14781 13.7544 3.1967 14.8033C4.2456 15.8522 5.58197 16.5665 7.03683 16.8559C8.49168 17.1453 9.99968 16.9967 11.3701 16.4291C12.7406 15.8614 13.9119 14.9001 14.736 13.6668C15.5601 12.4334 16 10.9834 16 9.5C15.9999 7.51091 15.2097 5.60333 13.8032 4.19684C12.3967 2.79034 10.4891 2.00013 8.5 2Z" stroke="url(#paint1_linear_556_9995)" stroke-width="1.33333" stroke-miterlimit="10"/>
</g>
<defs>
<linearGradient id="paint0_linear_556_9995" x1="14" y1="16.5" x2="17" y2="16.5" gradientUnits="userSpaceOnUse">
<stop stop-color="#2C5FC0"/>
<stop offset="1" stop-color="#131896"/>
</linearGradient>
<linearGradient id="paint1_linear_556_9995" x1="1" y1="9.5" x2="16" y2="9.5" gradientUnits="userSpaceOnUse">
<stop stop-color="#2C5FC0"/>
<stop offset="1" stop-color="#131896"/>
</linearGradient>
<clipPath id="clip0_556_9995">
<rect width="18" height="18" fill="white" transform="translate(0 0.5)"/>
</clipPath>
</defs>
</svg>
