<svg width="18" height="19" viewBox="0 0 18 19" fill="none" xmlns="http://www.w3.org/2000/svg">
<g clip-path="url(#clip0_556_10006)">
<path d="M11.248 2.02741C11.123 1.90262 10.9537 1.83252 10.7771 1.83252C10.6005 1.83252 10.4311 1.90262 10.3061 2.02741L1.52741 10.8061C1.40262 10.9311 1.33252 11.1005 1.33252 11.2771C1.33252 11.4537 1.40262 11.623 1.52741 11.748L2.47726 12.697C2.94168 12.4375 3.4781 12.3367 4.00504 12.4098C4.53198 12.483 5.02065 12.7261 5.39682 13.1023C5.773 13.4785 6.01613 13.9671 6.08929 14.4941C6.16245 15.021 6.06163 15.5574 5.80216 16.0219L6.752 16.9726C6.81389 17.0345 6.88737 17.0836 6.96825 17.1172C7.04913 17.1507 7.13582 17.1679 7.22337 17.1679C7.31092 17.1679 7.39761 17.1507 7.47849 17.1172C7.55937 17.0836 7.63285 17.0345 7.69474 16.9726L16.4726 8.19474C16.5974 8.06979 16.6675 7.90041 16.6675 7.72382C16.6675 7.54722 16.5974 7.37784 16.4726 7.25289L15.5219 6.30127C15.0574 6.56074 14.521 6.66156 13.9941 6.5884C13.4671 6.51524 12.9785 6.27211 12.6023 5.89594C12.2261 5.51976 11.983 5.03109 11.9098 4.50415C11.8367 3.97721 11.9375 3.44079 12.197 2.97637L11.248 2.02741ZM9.3643 1.08556C9.54994 0.899917 9.77034 0.752654 10.0129 0.652183C10.2554 0.551712 10.5154 0.5 10.778 0.5C11.0405 0.5 11.3005 0.551712 11.543 0.652183C11.7856 0.752654 12.006 0.899917 12.1916 1.08556L13.2321 2.12693C13.6861 2.58008 13.6053 3.21716 13.376 3.6019C13.25 3.81413 13.1983 4.06229 13.229 4.30719C13.2597 4.55209 13.3712 4.77979 13.5457 4.95432C13.7202 5.12885 13.9479 5.24027 14.1928 5.27099C14.4377 5.30171 14.6859 5.24998 14.8981 5.12396C15.2828 4.89561 15.9199 4.81386 16.3731 5.2679L17.4144 6.31016C17.6001 6.4958 17.7473 6.71619 17.8478 6.95875C17.9483 7.2013 18 7.46128 18 7.72382C18 7.98636 17.9483 8.24633 17.8478 8.48889C17.7473 8.73144 17.6001 8.95183 17.4144 9.13748L8.63748 17.9144C8.45183 18.1001 8.23144 18.2473 7.98889 18.3478C7.74633 18.4483 7.48636 18.5 7.22382 18.5C6.96128 18.5 6.7013 18.4483 6.45875 18.3478C6.21619 18.2473 5.9958 18.1001 5.81016 17.9144L4.76879 16.874C4.31564 16.4208 4.39561 15.7828 4.62485 15.399C4.75087 15.1868 4.8026 14.9386 4.77188 14.6937C4.74116 14.4488 4.62974 14.2211 4.45521 14.0466C4.28068 13.872 4.05298 13.7606 3.80808 13.7299C3.56317 13.6992 3.31502 13.7509 3.10279 13.8769C2.71805 14.1053 2.08097 14.1861 1.62782 13.7321L0.585563 12.6907C0.399917 12.5051 0.252654 12.2847 0.152183 12.0421C0.0517118 11.7996 0 11.5396 0 11.2771C0 11.0145 0.0517118 10.7546 0.152183 10.512C0.252654 10.2694 0.399917 10.0491 0.585563 9.86341L9.3643 1.08556Z" fill="url(#paint0_linear_556_10006)"/>
</g>
<defs>
<linearGradient id="paint0_linear_556_10006" x1="2.51457e-08" y1="9.5" x2="18" y2="9.5" gradientUnits="userSpaceOnUse">
<stop stop-color="#2C5FC0"/>
<stop offset="1" stop-color="#131896"/>
</linearGradient>
<clipPath id="clip0_556_10006">
<rect width="18" height="18" fill="white" transform="translate(0 0.5)"/>
</clipPath>
</defs>
</svg>
