<svg width="17" height="17" viewBox="0 0 17 17" fill="none" xmlns="http://www.w3.org/2000/svg">
<g clip-path="url(#clip0_1594_1121)">
<path d="M8.5 0C9.28027 0 10.0301 0.0996094 10.7495 0.298828C11.4689 0.498047 12.1468 0.785807 12.7832 1.16211C13.4196 1.53841 13.9924 1.98112 14.5015 2.49023C15.0106 2.99935 15.4561 3.57487 15.8379 4.2168C16.2197 4.85872 16.5047 5.53385 16.6929 6.24219C16.881 6.95052 16.9834 7.70312 17 8.5C17 9.28027 16.9004 10.0301 16.7012 10.7495C16.502 11.4689 16.2142 12.1468 15.8379 12.7832C15.4616 13.4196 15.0189 13.9924 14.5098 14.5015C14.0007 15.0106 13.4251 15.4561 12.7832 15.8379C12.1413 16.2197 11.4661 16.5047 10.7578 16.6929C10.0495 16.881 9.29688 16.9834 8.5 17C7.71973 17 6.96989 16.9004 6.25049 16.7012C5.53109 16.502 4.85319 16.2142 4.2168 15.8379C3.5804 15.4616 3.00765 15.0189 2.49854 14.5098C1.98942 14.0007 1.54395 13.4251 1.16211 12.7832C0.780273 12.1413 0.49528 11.4661 0.307129 10.7578C0.118978 10.0495 0.0166016 9.29688 0 8.5C0 7.71973 0.0996094 6.96989 0.298828 6.25049C0.498047 5.53109 0.785807 4.85319 1.16211 4.2168C1.53841 3.5804 1.98112 3.00765 2.49023 2.49854C2.99935 1.98942 3.57487 1.54395 4.2168 1.16211C4.85872 0.780273 5.53385 0.49528 6.24219 0.307129C6.95052 0.118978 7.70312 0.0166016 8.5 0ZM8.5 15.9375C9.40755 15.9375 10.2736 15.7826 11.0981 15.4727C11.9227 15.1628 12.6808 14.7118 13.3726 14.1196L2.88037 3.62744C2.28825 4.31364 1.83724 5.06901 1.52734 5.89355C1.21745 6.7181 1.0625 7.58691 1.0625 8.5C1.0625 9.1862 1.15104 9.84473 1.32812 10.4756C1.50521 11.1064 1.75423 11.6986 2.0752 12.252C2.39616 12.8053 2.78353 13.3062 3.2373 13.7544C3.69108 14.2026 4.19189 14.59 4.73975 14.9165C5.2876 15.243 5.87972 15.4948 6.51611 15.6719C7.15251 15.849 7.8138 15.9375 8.5 15.9375ZM14.1196 13.3726C14.7118 12.6864 15.1628 11.931 15.4727 11.1064C15.7826 10.2819 15.9375 9.41309 15.9375 8.5C15.9375 7.8138 15.849 7.15527 15.6719 6.52441C15.4948 5.89355 15.2458 5.30143 14.9248 4.74805C14.6038 4.19466 14.2165 3.69385 13.7627 3.24561C13.3089 2.79736 12.8081 2.40999 12.2603 2.0835C11.7124 1.757 11.1203 1.50521 10.4839 1.32812C9.84749 1.15104 9.1862 1.0625 8.5 1.0625C7.59245 1.0625 6.7264 1.21745 5.90186 1.52734C5.07731 1.83724 4.31917 2.28825 3.62744 2.88037L14.1196 13.3726Z" fill="#BE2F2F"/>
</g>
<defs>
<clipPath id="clip0_1594_1121">
<rect width="17" height="17" fill="white"/>
</clipPath>
</defs>
</svg>
