<svg width="24" height="24" viewBox="0 0 24 24" fill="none" xmlns="http://www.w3.org/2000/svg">
<path d="M5.83375 9.03784H7.0806C7.0806 7.96383 7.06927 6.87875 7.0806 5.80473C7.08148 4.76899 7.42469 3.76119 8.05915 2.93133C8.69362 2.10146 9.58542 1.49388 10.6019 1.199C11.6183 0.904123 12.7051 0.937705 13.7004 1.29475C14.6957 1.6518 15.5464 2.31322 16.1259 3.1806C16.534 3.76743 15.5479 4.32105 15.1398 3.73422C14.8164 3.27527 14.3917 2.89302 13.8971 2.61561C13.4024 2.33819 12.8504 2.17267 12.2816 2.13124C11.7128 2.08981 11.1417 2.17352 10.6104 2.3762C10.0791 2.57888 9.6011 2.89538 9.21159 3.3024C8.03275 4.53142 8.21411 6.14798 8.21411 7.68702V9.03784H18.1662C18.9178 9.03784 19.6386 9.32948 20.17 9.84859C20.7014 10.3677 21 11.0718 21 11.8059V20.2319C20.9979 20.9654 20.6987 21.6683 20.1677 22.187C19.6367 22.7057 18.9172 22.998 18.1662 23H5.83375C5.08284 22.998 4.36328 22.7057 3.8323 22.187C3.30132 21.6683 3.00209 20.9654 3 20.2319V11.8059C3 11.0718 3.29856 10.3677 3.82999 9.84859C4.36142 9.32948 5.0822 9.03784 5.83375 9.03784ZM4.1335 20.2319C4.13677 20.6714 4.31695 21.092 4.6351 21.4028C4.95325 21.7136 5.38383 21.8896 5.83375 21.8928H18.1662C18.6162 21.8896 19.0467 21.7136 19.3649 21.4028C19.6831 21.092 19.8632 20.6714 19.8665 20.2319V11.8059C19.8665 11.3654 19.6874 10.943 19.3685 10.6315C19.0496 10.3201 18.6172 10.1451 18.1662 10.1451H5.83375C5.38282 10.1451 4.95035 10.3201 4.63149 10.6315C4.31264 10.943 4.1335 11.3654 4.1335 11.8059V20.2319Z" fill="url(#paint0_linear_1600_1125)"/>
<defs>
<linearGradient id="paint0_linear_1600_1125" x1="21" y1="12" x2="3" y2="12" gradientUnits="userSpaceOnUse">
<stop stop-color="#2C5FC0"/>
<stop offset="1" stop-color="#131896"/>
</linearGradient>
</defs>
</svg>
