<svg width="18" height="18" viewBox="0 0 18 18" fill="none" xmlns="http://www.w3.org/2000/svg">
<path d="M16.8 12.9926C16.3385 12.1965 15.6525 9.9439 15.6525 7.00174C15.6525 5.23484 14.9517 3.5403 13.7042 2.29091C12.4567 1.04152 10.7647 0.339622 9.00042 0.339622C7.23618 0.339622 5.54419 1.04152 4.29668 2.29091C3.04917 3.5403 2.34833 5.23484 2.34833 7.00174C2.34833 9.94473 1.6615 12.1965 1.20001 12.9926C1.08216 13.195 1.01969 13.425 1.01888 13.6593C1.01808 13.8936 1.07898 14.1239 1.19544 14.3271C1.3119 14.5303 1.4798 14.6992 1.68221 14.8167C1.88462 14.9342 2.11439 14.9961 2.34833 14.9963H5.74173C5.8952 15.7484 6.30335 16.4243 6.89714 16.9098C7.49093 17.3952 8.23392 17.6604 9.00042 17.6604C9.76693 17.6604 10.5099 17.3952 11.1037 16.9098C11.6975 16.4243 12.1056 15.7484 12.2591 14.9963H15.6525C15.8864 14.996 16.116 14.9339 16.3183 14.8164C16.5206 14.6988 16.6884 14.53 16.8048 14.3268C16.9211 14.1236 16.982 13.8933 16.9811 13.6591C16.9803 13.4248 16.9178 13.195 16.8 12.9926ZM9.00042 16.3287C8.58784 16.3286 8.18544 16.2004 7.84861 15.9618C7.51178 15.7232 7.25707 15.3858 7.11954 14.9963H10.8813C10.7438 15.3858 10.4891 15.7232 10.1522 15.9618C9.8154 16.2004 9.413 16.3286 9.00042 16.3287ZM2.34833 13.6639C2.98859 12.5613 3.67875 10.0064 3.67875 7.00174C3.67875 5.58822 4.23942 4.23259 5.23743 3.23308C6.23544 2.23357 7.58903 1.67205 9.00042 1.67205C10.4118 1.67205 11.7654 2.23357 12.7634 3.23308C13.7614 4.23259 14.3221 5.58822 14.3221 7.00174C14.3221 10.0039 15.0106 12.5588 15.6525 13.6639H2.34833Z" fill="url(#paint0_linear_635_1295)"/>
<defs>
<linearGradient id="paint0_linear_635_1295" x1="1.01888" y1="9" x2="16.9811" y2="9" gradientUnits="userSpaceOnUse">
<stop stop-color="#2C5FC0"/>
<stop offset="1" stop-color="#131896"/>
</linearGradient>
</defs>
</svg>
