<svg width="32" height="32" viewBox="0 0 32 32" fill="none" xmlns="http://www.w3.org/2000/svg">
<path d="M3.19998 25.6C2.74665 25.6 2.36638 25.4464 2.05918 25.1392C1.75198 24.832 1.59891 24.4523 1.59998 24C1.59998 23.5467 1.75358 23.1664 2.06078 22.8592C2.36798 22.552 2.74771 22.399 3.19998 22.4H28.8C29.2533 22.4 29.6336 22.5536 29.9408 22.8608C30.248 23.168 30.401 23.5478 30.4 24C30.4 24.4534 30.2464 24.8336 29.9392 25.1408C29.632 25.448 29.2522 25.6011 28.8 25.6H3.19998ZM3.19998 17.6C2.74665 17.6 2.36638 17.4464 2.05918 17.1392C1.75198 16.832 1.59891 16.4523 1.59998 16C1.59998 15.5467 1.75358 15.1664 2.06078 14.8592C2.36798 14.552 2.74771 14.399 3.19998 14.4H28.8C29.2533 14.4 29.6336 14.5536 29.9408 14.8608C30.248 15.168 30.401 15.5478 30.4 16C30.4 16.4534 30.2464 16.8336 29.9392 17.1408C29.632 17.448 29.2522 17.6011 28.8 17.6H3.19998ZM3.19998 9.60003C2.74665 9.60003 2.36638 9.44643 2.05918 9.13923C1.75198 8.83203 1.59891 8.4523 1.59998 8.00003C1.59998 7.5467 1.75358 7.16643 2.06078 6.85923C2.36798 6.55203 2.74771 6.39896 3.19998 6.40003H28.8C29.2533 6.40003 29.6336 6.55363 29.9408 6.86083C30.248 7.16803 30.401 7.54776 30.4 8.00003C30.4 8.45336 30.2464 8.83363 29.9392 9.14083C29.632 9.44803 29.2522 9.6011 28.8 9.60003H3.19998Z" fill="url(#paint0_linear_1408_1208)"/>
<defs>
<linearGradient id="paint0_linear_1408_1208" x1="1.59998" y1="16" x2="30.4" y2="16" gradientUnits="userSpaceOnUse">
<stop stop-color="#2C5FC0"/>
<stop offset="1" stop-color="#131896"/>
</linearGradient>
</defs>
</svg>
