<svg width="179" height="33" viewBox="0 0 179 33" fill="none" xmlns="http://www.w3.org/2000/svg">
<path d="M4.56587 32.4033C3.25138 32.4033 2.23564 32.0448 1.51865 31.3278C0.801659 30.6108 0.443163 29.5652 0.443163 28.191V4.21656C0.443163 2.84233 0.801659 1.79671 1.51865 1.07972C2.23564 0.362728 3.25138 0.00423245 4.56587 0.00423245C5.88035 0.00423245 6.89609 0.362728 7.61308 1.07972C8.33007 1.79671 8.68857 2.84233 8.68857 4.21656V28.191C8.68857 29.5652 8.33007 30.6108 7.61308 31.3278C6.92597 32.0448 5.91023 32.4033 4.56587 32.4033ZM18.257 32.4033C15.6878 32.4033 14.4032 31.1038 14.4032 28.5047V4.08213C14.4032 2.76764 14.7318 1.76684 15.389 1.07972C16.0463 0.362728 16.9126 0.00423245 17.9881 0.00423245C18.9441 0.00423245 19.676 0.183481 20.1839 0.541978C20.7216 0.900472 21.3341 1.49797 22.0212 2.33446L34.9719 18.5116V3.85807C34.9719 1.28884 36.2415 0.00423245 38.7809 0.00423245C40.0356 0.00423245 40.9767 0.347791 41.604 1.03491C42.2613 1.69215 42.5899 2.6332 42.5899 3.85807V28.6839C42.5899 29.8191 42.2912 30.7303 41.6937 31.4174C41.0962 32.0747 40.2895 32.4033 39.2738 32.4033C38.2581 32.4033 37.4515 32.2241 36.854 31.8656C36.2863 31.5071 35.6739 30.9096 35.0167 30.0731L22.066 13.896V28.5047C22.066 31.1038 20.7963 32.4033 18.257 32.4033ZM62.1643 32.4033C61.0291 32.4033 60.103 32.1643 59.386 31.6863C58.6989 31.2083 58.1163 30.4465 57.6383 29.4009L46.7938 5.4713C46.3158 4.42568 46.1665 3.48463 46.3457 2.64814C46.525 1.81165 46.9432 1.16935 47.6004 0.721226C48.2577 0.24323 49.0792 0.00423245 50.0651 0.00423245C51.2601 0.00423245 52.1713 0.273105 52.7986 0.810849C53.426 1.34859 53.9637 2.14027 54.4119 3.18589L62.2988 21.4692L70.1857 3.14107C70.6338 2.09546 71.1715 1.31872 71.7989 0.810849C72.4263 0.273105 73.3076 0.00423245 74.4428 0.00423245C75.3689 0.00423245 76.1457 0.24323 76.773 0.721226C77.4004 1.19922 77.7888 1.85646 77.9382 2.69295C78.1174 3.49957 77.968 4.42568 77.49 5.4713L66.6007 29.4009C66.1526 30.4465 65.57 31.2083 64.8531 31.6863C64.1659 32.1643 63.2697 32.4033 62.1643 32.4033ZM85.7438 32.4033C84.4294 32.4033 83.4136 32.0448 82.6966 31.3278C81.9796 30.6108 81.6211 29.5652 81.6211 28.191V4.21656C81.6211 2.84233 81.9796 1.79671 82.6966 1.07972C83.4136 0.362728 84.4294 0.00423245 85.7438 0.00423245C87.0583 0.00423245 88.0741 0.362728 88.7911 1.07972C89.5081 1.79671 89.8665 2.84233 89.8665 4.21656V28.191C89.8665 29.5652 89.5081 30.6108 88.7911 31.3278C88.1039 32.0448 87.0882 32.4033 85.7438 32.4033ZM107.143 32.4033C105.828 32.4033 104.812 32.0448 104.095 31.3278C103.378 30.6108 103.02 29.5802 103.02 28.2358V7.12934H95.9844C93.714 7.12934 92.5787 6.00904 92.5787 3.76844C92.5787 1.52784 93.714 0.407541 95.9844 0.407541H118.301C120.571 0.407541 121.707 1.52784 121.707 3.76844C121.707 6.00904 120.571 7.12934 118.301 7.12934H111.265V28.2358C111.265 29.5802 110.907 30.6108 110.19 31.3278C109.503 32.0448 108.487 32.4033 107.143 32.4033ZM128.722 32C125.854 32 124.42 30.581 124.42 27.7429V4.66468C124.42 1.82659 125.854 0.407541 128.722 0.407541H143.913C146.064 0.407541 147.14 1.45315 147.14 3.54438C147.14 5.69536 146.064 6.77084 143.913 6.77084H132.307V12.7757H142.927C145.078 12.7757 146.154 13.8362 146.154 15.9573C146.154 18.0784 145.078 19.139 142.927 19.139H132.307V25.6367H143.913C146.064 25.6367 147.14 26.6972 147.14 28.8183C147.14 30.9394 146.064 32 143.913 32H128.722ZM156.069 32.4033C154.754 32.4033 153.739 32.0448 153.022 31.3278C152.305 30.6108 151.946 29.5802 151.946 28.2358V4.57506C151.946 3.2307 152.305 2.20002 153.022 1.48303C153.739 0.766036 154.769 0.407541 156.114 0.407541H167.137C170.722 0.407541 173.486 1.28884 175.428 3.05145C177.399 4.78418 178.385 7.20403 178.385 10.311C178.385 12.6711 177.788 14.6578 176.593 16.271C175.428 17.8543 173.725 18.9597 171.484 19.5871C173.157 20.0352 174.502 21.1854 175.517 23.0376L177.758 27.0707C178.236 27.9669 178.445 28.8183 178.385 29.625C178.355 30.4316 178.042 31.1038 177.444 31.6415C176.847 32.1494 175.965 32.4033 174.8 32.4033C173.635 32.4033 172.679 32.1792 171.932 31.7311C171.215 31.2531 170.573 30.4913 170.005 29.4457L165.928 21.9621C165.569 21.3049 165.106 20.8567 164.538 20.6178C164.001 20.3489 163.373 20.2144 162.656 20.2144H160.192V28.2358C160.192 29.5802 159.833 30.6108 159.116 31.3278C158.429 32.0448 157.413 32.4033 156.069 32.4033ZM160.192 14.3889H165.659C168.915 14.3889 170.543 13.1043 170.543 10.5351C170.543 7.99571 168.915 6.72603 165.659 6.72603H160.192V14.3889Z" fill="white"/>
</svg>
