<svg width="30" height="30" viewBox="0 0 30 30" fill="none" xmlns="http://www.w3.org/2000/svg">
<rect x="0.441176" y="0.441176" width="29.1176" height="29.1176" rx="3.97059" fill="white" stroke="url(#paint0_linear_1156_480)" stroke-width="0.882353"/>
<path d="M6.73276 14.7007C6.46225 14.7007 6.25322 14.6269 6.10567 14.4793C5.95811 14.3318 5.88434 14.1166 5.88434 13.8338V8.90003C5.88434 8.61722 5.95811 8.40204 6.10567 8.25449C6.25322 8.10694 6.46225 8.03316 6.73276 8.03316C7.00327 8.03316 7.21231 8.10694 7.35986 8.25449C7.50741 8.40204 7.58119 8.61722 7.58119 8.90003V13.8338C7.58119 14.1166 7.50741 14.3318 7.35986 14.4793C7.21845 14.6269 7.00942 14.7007 6.73276 14.7007ZM9.5503 14.7007C9.02157 14.7007 8.75721 14.4332 8.75721 13.8984V8.87236C8.75721 8.60185 8.82484 8.39589 8.96009 8.25449C9.09535 8.10694 9.27364 8.03316 9.49497 8.03316C9.69171 8.03316 9.84233 8.07005 9.94685 8.14382C10.0575 8.2176 10.1835 8.34056 10.325 8.5127L12.9901 11.8419V8.82625C12.9901 8.29752 13.2514 8.03316 13.774 8.03316C14.0322 8.03316 14.2259 8.10386 14.355 8.24527C14.4902 8.38052 14.5579 8.57418 14.5579 8.82625V13.9352C14.5579 14.1689 14.4964 14.3564 14.3734 14.4978C14.2505 14.633 14.0845 14.7007 13.8754 14.7007C13.6664 14.7007 13.5004 14.6638 13.3774 14.59C13.2606 14.5162 13.1346 14.3933 12.9993 14.2211L10.3342 10.892V13.8984C10.3342 14.4332 10.0729 14.7007 9.5503 14.7007ZM18.5861 14.7007C18.3525 14.7007 18.1619 14.6515 18.0144 14.5531C17.873 14.4548 17.7531 14.298 17.6547 14.0828L15.423 9.15825C15.3246 8.94307 15.2939 8.7494 15.3308 8.57726C15.3677 8.40511 15.4537 8.27293 15.589 8.18071C15.7242 8.08234 15.8933 8.03316 16.0962 8.03316C16.3421 8.03316 16.5296 8.08849 16.6587 8.19916C16.7879 8.30982 16.8985 8.47274 16.9907 8.68792L18.6138 12.4505L20.2369 8.6787C20.3291 8.46352 20.4398 8.30367 20.5689 8.19916C20.698 8.08849 20.8794 8.03316 21.113 8.03316C21.3036 8.03316 21.4634 8.08234 21.5925 8.18071C21.7216 8.27908 21.8016 8.41434 21.8323 8.58648C21.8692 8.75248 21.8384 8.94307 21.7401 9.15825L19.4991 14.0828C19.4069 14.298 19.287 14.4548 19.1395 14.5531C18.9981 14.6515 18.8136 14.7007 18.5861 14.7007ZM23.4387 14.7007C23.1681 14.7007 22.9591 14.6269 22.8116 14.4793C22.664 14.3318 22.5902 14.1166 22.5902 13.8338V8.90003C22.5902 8.61722 22.664 8.40204 22.8116 8.25449C22.9591 8.10694 23.1681 8.03316 23.4387 8.03316C23.7092 8.03316 23.9182 8.10694 24.0657 8.25449C24.2133 8.40204 24.2871 8.61722 24.2871 8.90003V13.8338C24.2871 14.1166 24.2133 14.3318 24.0657 14.4793C23.9243 14.6269 23.7153 14.7007 23.4387 14.7007ZM8.98484 23.7007C8.71432 23.7007 8.50529 23.6269 8.35774 23.4793C8.21019 23.3318 8.13641 23.1197 8.13641 22.843V18.4995H6.68856C6.22131 18.4995 5.98768 18.2689 5.98768 17.8078C5.98768 17.3467 6.22131 17.1162 6.68856 17.1162H11.2811C11.7484 17.1162 11.982 17.3467 11.982 17.8078C11.982 18.2689 11.7484 18.4995 11.2811 18.4995H9.83326V22.843C9.83326 23.1197 9.75949 23.3318 9.61193 23.4793C9.47053 23.6269 9.2615 23.7007 8.98484 23.7007ZM13.4257 23.6177C12.8355 23.6177 12.5404 23.3256 12.5404 22.7416V17.9922C12.5404 17.4082 12.8355 17.1162 13.4257 17.1162H16.552C16.9947 17.1162 17.216 17.3313 17.216 17.7617C17.216 18.2044 16.9947 18.4257 16.552 18.4257H14.1635V19.6614H16.3491C16.7918 19.6614 17.0131 19.8797 17.0131 20.3162C17.0131 20.7527 16.7918 20.971 16.3491 20.971H14.1635V22.3082H16.552C16.9947 22.3082 17.216 22.5264 17.216 22.9629C17.216 23.3994 16.9947 23.6177 16.552 23.6177H13.4257ZM19.0535 23.7007C18.783 23.7007 18.574 23.6269 18.4264 23.4793C18.2789 23.3318 18.2051 23.1197 18.2051 22.843V17.9738C18.2051 17.6971 18.2789 17.485 18.4264 17.3375C18.574 17.1899 18.7861 17.1162 19.0628 17.1162H21.3314C22.0691 17.1162 22.6378 17.2975 23.0375 17.6603C23.4432 18.0168 23.6461 18.5148 23.6461 19.1542C23.6461 19.6399 23.5231 20.0488 23.2772 20.3807C23.0375 20.7066 22.687 20.9341 22.2259 21.0632C22.5702 21.1554 22.8469 21.3921 23.0559 21.7733L23.517 22.6033C23.6154 22.7877 23.6584 22.9629 23.6461 23.1289C23.64 23.2949 23.5754 23.4332 23.4524 23.5439C23.3295 23.6484 23.1481 23.7007 22.9083 23.7007C22.6686 23.7007 22.4718 23.6546 22.3181 23.5623C22.1706 23.464 22.0384 23.3072 21.9216 23.092L21.0824 21.5519C21.0086 21.4167 20.9133 21.3245 20.7965 21.2753C20.6858 21.22 20.5567 21.1923 20.4092 21.1923H19.902V22.843C19.902 23.1197 19.8282 23.3318 19.6806 23.4793C19.5392 23.6269 19.3302 23.7007 19.0535 23.7007ZM19.902 19.9934H21.0271C21.6972 19.9934 22.0323 19.7291 22.0323 19.2003C22.0323 18.6778 21.6972 18.4165 21.0271 18.4165H19.902V19.9934Z" fill="url(#paint1_linear_1156_480)"/>
<path d="M5.65413 23.6336C5.57472 23.6336 5.51119 23.6097 5.46354 23.5621C5.41766 23.5127 5.39472 23.45 5.39472 23.3741C5.39472 23.3 5.41766 23.2391 5.46354 23.1915C5.51119 23.1439 5.57472 23.12 5.65413 23.12C5.7353 23.12 5.79883 23.1439 5.84472 23.1915C5.8906 23.2391 5.91354 23.3 5.91354 23.3741C5.91354 23.45 5.8906 23.5127 5.84472 23.5621C5.79883 23.6097 5.7353 23.6336 5.65413 23.6336Z" fill="white"/>
<defs>
<linearGradient id="paint0_linear_1156_480" x1="4.19095e-08" y1="15" x2="30" y2="15" gradientUnits="userSpaceOnUse">
<stop stop-color="#2C5FC0"/>
<stop offset="1" stop-color="#131896"/>
</linearGradient>
<linearGradient id="paint1_linear_1156_480" x1="5.29413" y1="15.6618" x2="26.4706" y2="15.6618" gradientUnits="userSpaceOnUse">
<stop stop-color="#2C5FC0"/>
<stop offset="1" stop-color="#131896"/>
</linearGradient>
</defs>
</svg>
