<svg width="46" height="39" viewBox="0 0 46 39" fill="none" xmlns="http://www.w3.org/2000/svg">
<path d="M2.80975 16.4428C2.15571 16.4428 1.65032 16.2644 1.29357 15.9076C0.936819 15.5509 0.758445 15.0306 0.758445 14.3469V2.4181C0.758445 1.73433 0.936819 1.21407 1.29357 0.857321C1.65032 0.500572 2.15571 0.322198 2.80975 0.322198C3.46379 0.322198 3.96918 0.500572 4.32593 0.857321C4.68268 1.21407 4.86105 1.73433 4.86105 2.4181V14.3469C4.86105 15.0306 4.68268 15.5509 4.32593 15.9076C3.98405 16.2644 3.47865 16.4428 2.80975 16.4428ZM9.62194 16.4428C8.34359 16.4428 7.70441 15.7962 7.70441 14.5029V2.35121C7.70441 1.69717 7.86792 1.1992 8.19494 0.857321C8.52196 0.500572 8.95303 0.322198 9.48815 0.322198C9.96382 0.322198 10.328 0.411386 10.5807 0.58976C10.8483 0.768134 11.153 1.06542 11.4949 1.48163L17.9386 9.53077V2.23972C17.9386 0.961373 18.5704 0.322198 19.8339 0.322198C20.4582 0.322198 20.9264 0.49314 21.2386 0.835024C21.5656 1.16204 21.7291 1.63028 21.7291 2.23972V14.5921C21.7291 15.157 21.5804 15.6104 21.2831 15.9522C20.9859 16.2793 20.5845 16.4428 20.0791 16.4428C19.5737 16.4428 19.1724 16.3536 18.8751 16.1752C18.5927 15.9968 18.2879 15.6995 17.9609 15.2833L11.5172 7.2342V14.5029C11.5172 15.7962 10.8854 16.4428 9.62194 16.4428ZM31.4686 16.4428C30.9037 16.4428 30.4429 16.3239 30.0862 16.086C29.7443 15.8482 29.4545 15.4691 29.2166 14.9489L23.8208 3.04241C23.583 2.52215 23.5086 2.05391 23.5978 1.63771C23.687 1.2215 23.8951 0.901915 24.2221 0.678947C24.5492 0.441115 24.9579 0.322198 25.4485 0.322198C26.043 0.322198 26.4964 0.455979 26.8086 0.72354C27.1207 0.991102 27.3883 1.38501 27.6113 1.90527L31.5355 11.0024L35.4597 1.88297C35.6827 1.36271 35.9502 0.976237 36.2624 0.72354C36.5746 0.455979 37.0131 0.322198 37.5779 0.322198C38.0387 0.322198 38.4252 0.441115 38.7373 0.678947C39.0495 0.916779 39.2427 1.2438 39.3171 1.66C39.4062 2.06135 39.3319 2.52215 39.0941 3.04241L33.676 14.9489C33.453 15.4691 33.1631 15.8482 32.8064 16.086C32.4645 16.3239 32.0186 16.4428 31.4686 16.4428ZM43.2009 16.4428C42.5468 16.4428 42.0414 16.2644 41.6847 15.9076C41.3279 15.5509 41.1496 15.0306 41.1496 14.3469V2.4181C41.1496 1.73433 41.3279 1.21407 41.6847 0.857321C42.0414 0.500572 42.5468 0.322198 43.2009 0.322198C43.8549 0.322198 44.3603 0.500572 44.7171 0.857321C45.0738 1.21407 45.2522 1.73433 45.2522 2.4181V14.3469C45.2522 15.0306 45.0738 15.5509 44.7171 15.9076C44.3752 16.2644 43.8698 16.4428 43.2009 16.4428ZM8.28561 38.4428C7.63157 38.4428 7.12618 38.2644 6.76943 37.9076C6.41268 37.5509 6.23431 37.0381 6.23431 36.3692V25.8674H2.73371C1.60401 25.8674 1.03916 25.31 1.03916 24.1951C1.03916 23.0803 1.60401 22.5229 2.73371 22.5229H13.8375C14.9672 22.5229 15.5321 23.0803 15.5321 24.1951C15.5321 25.31 14.9672 25.8674 13.8375 25.8674H10.3369V36.3692C10.3369 37.0381 10.1585 37.5509 9.80179 37.9076C9.45991 38.2644 8.95451 38.4428 8.28561 38.4428ZM19.0227 38.2421C17.5957 38.2421 16.8822 37.536 16.8822 36.1239V24.6411C16.8822 23.2289 17.5957 22.5229 19.0227 22.5229H26.5813C27.6516 22.5229 28.1867 23.0431 28.1867 24.0836C28.1867 25.1539 27.6516 25.689 26.5813 25.689H20.8065V28.6768H26.0908C27.161 28.6768 27.6962 29.2045 27.6962 30.2599C27.6962 31.3152 27.161 31.8429 26.0908 31.8429H20.8065V35.076H26.5813C27.6516 35.076 28.1867 35.6036 28.1867 36.659C28.1867 37.7144 27.6516 38.2421 26.5813 38.2421H19.0227ZM32.6295 38.4428C31.9755 38.4428 31.4701 38.2644 31.1133 37.9076C30.7566 37.5509 30.5782 37.0381 30.5782 36.3692V24.5965C30.5782 23.9276 30.7566 23.4147 31.1133 23.058C31.4701 22.7012 31.9829 22.5229 32.6518 22.5229H38.1368C39.9206 22.5229 41.2955 22.9614 42.2617 23.8384C43.2428 24.7005 43.7333 25.9045 43.7333 27.4505C43.7333 28.6248 43.436 29.6132 42.8414 30.4159C42.2617 31.2037 41.4144 31.7537 40.2996 32.0659C41.132 32.2889 41.8009 32.8611 42.3063 33.7827L43.4211 35.7895C43.659 36.2354 43.763 36.659 43.7333 37.0604C43.7184 37.4617 43.5624 37.7962 43.2651 38.0637C42.9678 38.3164 42.5293 38.4428 41.9496 38.4428C41.3698 38.4428 40.8942 38.3313 40.5226 38.1083C40.1658 37.8705 39.8462 37.4914 39.5638 36.9712L37.5348 33.2476C37.3564 32.9206 37.126 32.6976 36.8436 32.5787C36.576 32.4449 36.2639 32.378 35.9071 32.378H34.6808V36.3692C34.6808 37.0381 34.5024 37.5509 34.1457 37.9076C33.8038 38.2644 33.2984 38.4428 32.6295 38.4428ZM34.6808 29.4795H37.401C39.0212 29.4795 39.8314 28.8403 39.8314 27.5619C39.8314 26.2985 39.0212 25.6667 37.401 25.6667H34.6808V29.4795Z" fill="url(#paint0_linear_661_1021)"/>
<defs>
<linearGradient id="paint0_linear_661_1021" x1="-1" y1="19.0421" x2="47" y2="19.0421" gradientUnits="userSpaceOnUse">
<stop stop-color="#2C5FC0"/>
<stop offset="1" stop-color="#131896"/>
</linearGradient>
</defs>
</svg>
